<?xml version="1.0" encoding="UTF-8" standalone="no"?>
<!DOCTYPE svg PUBLIC "-//W3C//DTD SVG 1.1//EN"
 "http://www.w3.org/Graphics/SVG/1.1/DTD/svg11.dtd">
<!-- Generated by graphviz version 9.0.0 (20230911.1827)
 -->
<!-- Pages: 1 -->
<svg width="138pt" height="222pt"
 viewBox="0.00 0.00 137.98 221.60" xmlns="http://www.w3.org/2000/svg" xmlns:xlink="http://www.w3.org/1999/xlink">
<g id="graph0" class="graph" transform="scale(1 1) rotate(0) translate(4 217.6)">
<polygon fill="white" stroke="none" points="-4,4 -4,-217.6 133.98,-217.6 133.98,4 -4,4"/>
<!-- Parent -->
<g id="node1" class="node">
<title>Parent</title>
<ellipse fill="none" stroke="black" cx="51.25" cy="-195.6" rx="35.71" ry="18"/>
<text text-anchor="middle" x="51.25" y="-191.4" font-family="Times,serif" font-size="14.00">Parent</text>
</g>
<!-- Aggregate -->
<g id="node2" class="node">
<title>Aggregate</title>
<ellipse fill="none" stroke="black" cx="51.25" cy="-106.8" rx="51.25" ry="18"/>
<text text-anchor="middle" x="51.25" y="-102.6" font-family="Times,serif" font-size="14.00">Aggregate</text>
</g>
<!-- Parent&#45;&gt;Aggregate -->
<g id="edge1" class="edge">
<title>Parent&#45;&gt;Aggregate</title>
<path fill="none" stroke="black" d="M29.61,-181.12C22.48,-175.44 15.39,-168.14 11.53,-159.6 8.45,-152.8 8.45,-149.6 11.53,-142.8 13.48,-138.46 16.27,-134.45 19.48,-130.81"/>
<polygon fill="black" stroke="black" points="21.7,-133.53 26.43,-124.05 16.82,-128.51 21.7,-133.53"/>
<text text-anchor="middle" x="41.62" y="-147" font-family="Times,serif" font-size="14.00"> post1.md </text>
</g>
<!-- Parent&#45;&gt;Aggregate -->
<g id="edge2" class="edge">
<title>Parent&#45;&gt;Aggregate</title>
<path fill="none" stroke="black" d="M62.33,-178.21C65.54,-172.56 68.62,-166.03 70.25,-159.6 72.09,-152.36 72.09,-150.04 70.25,-142.8 69.58,-140.14 68.66,-137.47 67.58,-134.85"/>
<polygon fill="black" stroke="black" points="70.74,-133.34 63.19,-125.9 64.45,-136.42 70.74,-133.34"/>
<text text-anchor="middle" x="100.62" y="-147" font-family="Times,serif" font-size="14.00"> post2.md </text>
</g>
<!-- Child -->
<g id="node3" class="node">
<title>Child</title>
<ellipse fill="none" stroke="black" cx="51.25" cy="-18" rx="32.5" ry="18"/>
<text text-anchor="middle" x="51.25" y="-13.8" font-family="Times,serif" font-size="14.00">Child</text>
</g>
<!-- Aggregate&#45;&gt;Child -->
<g id="edge3" class="edge">
<title>Aggregate&#45;&gt;Child</title>
<path fill="none" stroke="black" d="M51.25,-88.65C51.25,-76.96 51.25,-61.19 51.25,-47.62"/>
<polygon fill="black" stroke="black" points="54.75,-47.92 51.25,-37.92 47.75,-47.92 54.75,-47.92"/>
<text text-anchor="middle" x="83.72" y="-58.2" font-family="Times,serif" font-size="14.00"> index.json </text>
</g>
</g>
</svg>
