<?xml version="1.0" encoding="UTF-8" standalone="no"?>
<!DOCTYPE svg PUBLIC "-//W3C//DTD SVG 1.1//EN"
 "http://www.w3.org/Graphics/SVG/1.1/DTD/svg11.dtd">
<!-- Generated by graphviz version 9.0.0 (20230911.1827)
 -->
<!-- Pages: 1 -->
<svg width="314pt" height="404pt"
 viewBox="0.00 0.00 314.36 404.00" xmlns="http://www.w3.org/2000/svg" xmlns:xlink="http://www.w3.org/1999/xlink">
<g id="graph0" class="graph" transform="scale(1 1) rotate(0) translate(4 400)">
<polygon fill="white" stroke="none" points="-4,4 -4,-400 310.36,-400 310.36,4 -4,4"/>
<!-- source -->
<g id="node1" class="node">
<title>source</title>
<ellipse fill="none" stroke="black" cx="148.36" cy="-378" rx="36.24" ry="18"/>
<text text-anchor="middle" x="148.36" y="-373.8" font-family="Times,serif" font-size="14.00">source</text>
</g>
<!-- front&#45;matter -->
<g id="node2" class="node">
<title>front&#45;matter</title>
<ellipse fill="none" stroke="black" cx="148.36" cy="-306" rx="57.69" ry="18"/>
<text text-anchor="middle" x="148.36" y="-301.8" font-family="Times,serif" font-size="14.00">front&#45;matter</text>
</g>
<!-- source&#45;&gt;front&#45;matter -->
<g id="edge1" class="edge">
<title>source&#45;&gt;front&#45;matter</title>
<path fill="none" stroke="black" d="M148.36,-359.7C148.36,-352.41 148.36,-343.73 148.36,-335.54"/>
<polygon fill="black" stroke="black" points="151.86,-335.62 148.36,-325.62 144.86,-335.62 151.86,-335.62"/>
</g>
<!-- markdown -->
<g id="node3" class="node">
<title>markdown</title>
<ellipse fill="none" stroke="black" cx="85.36" cy="-234" rx="52.34" ry="18"/>
<text text-anchor="middle" x="85.36" y="-229.8" font-family="Times,serif" font-size="14.00">markdown</text>
</g>
<!-- front&#45;matter&#45;&gt;markdown -->
<g id="edge2" class="edge">
<title>front&#45;matter&#45;&gt;markdown</title>
<path fill="none" stroke="black" d="M133.43,-288.41C125.74,-279.87 116.21,-269.28 107.66,-259.79"/>
<polygon fill="black" stroke="black" points="110.48,-257.69 101.19,-252.59 105.28,-262.37 110.48,-257.69"/>
</g>
<!-- index&#45;posts -->
<g id="node6" class="node">
<title>index&#45;posts</title>
<ellipse fill="none" stroke="black" cx="220.36" cy="-234" rx="55.56" ry="18"/>
<text text-anchor="middle" x="220.36" y="-229.8" font-family="Times,serif" font-size="14.00">index&#45;posts</text>
</g>
<!-- front&#45;matter&#45;&gt;index&#45;posts -->
<g id="edge5" class="edge">
<title>front&#45;matter&#45;&gt;index&#45;posts</title>
<path fill="none" stroke="black" d="M165.42,-288.41C174.39,-279.69 185.54,-268.85 195.46,-259.21"/>
<polygon fill="black" stroke="black" points="197.6,-262.01 202.33,-252.53 192.72,-256.99 197.6,-262.01"/>
</g>
<!-- template&#45;posts -->
<g id="node4" class="node">
<title>template&#45;posts</title>
<ellipse fill="none" stroke="black" cx="67.36" cy="-162" rx="67.36" ry="18"/>
<text text-anchor="middle" x="67.36" y="-157.8" font-family="Times,serif" font-size="14.00">template&#45;posts</text>
</g>
<!-- markdown&#45;&gt;template&#45;posts -->
<g id="edge3" class="edge">
<title>markdown&#45;&gt;template&#45;posts</title>
<path fill="none" stroke="black" d="M80.91,-215.7C79.01,-208.32 76.75,-199.52 74.62,-191.25"/>
<polygon fill="black" stroke="black" points="78.01,-190.38 72.13,-181.57 71.23,-192.13 78.01,-190.38"/>
</g>
<!-- lhtml -->
<g id="node5" class="node">
<title>lhtml</title>
<ellipse fill="none" stroke="black" cx="148.36" cy="-90" rx="31.43" ry="18"/>
<text text-anchor="middle" x="148.36" y="-85.8" font-family="Times,serif" font-size="14.00">lhtml</text>
</g>
<!-- template&#45;posts&#45;&gt;lhtml -->
<g id="edge4" class="edge">
<title>template&#45;posts&#45;&gt;lhtml</title>
<path fill="none" stroke="black" d="M86.55,-144.41C97.44,-135 111.19,-123.12 122.96,-112.94"/>
<polygon fill="black" stroke="black" points="125.07,-115.75 130.35,-106.56 120.5,-110.45 125.07,-115.75"/>
</g>
<!-- destination -->
<g id="node8" class="node">
<title>destination</title>
<ellipse fill="none" stroke="black" cx="148.36" cy="-18" rx="53.41" ry="18"/>
<text text-anchor="middle" x="148.36" y="-13.8" font-family="Times,serif" font-size="14.00">destination</text>
</g>
<!-- lhtml&#45;&gt;destination -->
<g id="edge8" class="edge">
<title>lhtml&#45;&gt;destination</title>
<path fill="none" stroke="black" d="M148.36,-71.7C148.36,-64.41 148.36,-55.73 148.36,-47.54"/>
<polygon fill="black" stroke="black" points="151.86,-47.62 148.36,-37.62 144.86,-47.62 151.86,-47.62"/>
</g>
<!-- template&#45;indexes -->
<g id="node7" class="node">
<title>template&#45;indexes</title>
<ellipse fill="none" stroke="black" cx="229.36" cy="-162" rx="77" ry="18"/>
<text text-anchor="middle" x="229.36" y="-157.8" font-family="Times,serif" font-size="14.00">template&#45;indexes</text>
</g>
<!-- index&#45;posts&#45;&gt;template&#45;indexes -->
<g id="edge6" class="edge">
<title>index&#45;posts&#45;&gt;template&#45;indexes</title>
<path fill="none" stroke="black" d="M222.58,-215.7C223.53,-208.32 224.66,-199.52 225.72,-191.25"/>
<polygon fill="black" stroke="black" points="229.16,-191.97 226.96,-181.61 222.22,-191.08 229.16,-191.97"/>
</g>
<!-- template&#45;indexes&#45;&gt;lhtml -->
<g id="edge7" class="edge">
<title>template&#45;indexes&#45;&gt;lhtml</title>
<path fill="none" stroke="black" d="M210.16,-144.41C199.27,-135 185.52,-123.12 173.75,-112.94"/>
<polygon fill="black" stroke="black" points="176.22,-110.45 166.36,-106.56 171.64,-115.75 176.22,-110.45"/>
</g>
</g>
</svg>
