<?xml version="1.0" encoding="UTF-8" standalone="no"?>
<!DOCTYPE svg PUBLIC "-//W3C//DTD SVG 1.1//EN"
 "http://www.w3.org/Graphics/SVG/1.1/DTD/svg11.dtd">
<!-- Generated by graphviz version 9.0.0 (20230911.1827)
 -->
<!-- Pages: 1 -->
<svg width="272pt" height="222pt"
 viewBox="0.00 0.00 271.91 221.60" xmlns="http://www.w3.org/2000/svg" xmlns:xlink="http://www.w3.org/1999/xlink">
<g id="graph0" class="graph" transform="scale(1 1) rotate(0) translate(4 217.6)">
<polygon fill="white" stroke="none" points="-4,4 -4,-217.6 267.91,-217.6 267.91,4 -4,4"/>
<!-- Parent -->
<g id="node1" class="node">
<title>Parent</title>
<ellipse fill="none" stroke="black" cx="131.45" cy="-195.6" rx="35.71" ry="18"/>
<text text-anchor="middle" x="131.45" y="-191.4" font-family="Times,serif" font-size="14.00">Parent</text>
</g>
<!-- Transform#1 -->
<g id="node2" class="node">
<title>Transform#1</title>
<ellipse fill="none" stroke="black" cx="61.45" cy="-106.8" rx="61.45" ry="18"/>
<text text-anchor="middle" x="61.45" y="-102.6" font-family="Times,serif" font-size="14.00">Transform#1</text>
</g>
<!-- Parent&#45;&gt;Transform#1 -->
<g id="edge1" class="edge">
<title>Parent&#45;&gt;Transform#1</title>
<path fill="none" stroke="black" d="M118.61,-178.68C108.42,-166.03 93.95,-148.1 82.13,-133.44"/>
<polygon fill="black" stroke="black" points="85.12,-131.57 76.12,-125.98 79.67,-135.97 85.12,-131.57"/>
<text text-anchor="middle" x="132.82" y="-147" font-family="Times,serif" font-size="14.00"> post1.md </text>
</g>
<!-- Transform#2 -->
<g id="node3" class="node">
<title>Transform#2</title>
<ellipse fill="none" stroke="black" cx="202.45" cy="-106.8" rx="61.45" ry="18"/>
<text text-anchor="middle" x="202.45" y="-102.6" font-family="Times,serif" font-size="14.00">Transform#2</text>
</g>
<!-- Parent&#45;&gt;Transform#2 -->
<g id="edge2" class="edge">
<title>Parent&#45;&gt;Transform#2</title>
<path fill="none" stroke="black" d="M147.55,-179.04C153.39,-173.14 159.92,-166.23 165.45,-159.6 172.17,-151.55 178.99,-142.35 184.92,-133.96"/>
<polygon fill="black" stroke="black" points="187.72,-136.06 190.54,-125.85 181.97,-132.08 187.72,-136.06"/>
<text text-anchor="middle" x="207.82" y="-147" font-family="Times,serif" font-size="14.00"> post2.md </text>
</g>
<!-- Child -->
<g id="node4" class="node">
<title>Child</title>
<ellipse fill="none" stroke="black" cx="131.45" cy="-18" rx="32.5" ry="18"/>
<text text-anchor="middle" x="131.45" y="-13.8" font-family="Times,serif" font-size="14.00">Child</text>
</g>
<!-- Transform#1&#45;&gt;Child -->
<g id="edge3" class="edge">
<title>Transform#1&#45;&gt;Child</title>
<path fill="none" stroke="black" d="M73.98,-88.79C81.62,-78.57 91.65,-65.39 100.95,-54 103.84,-50.45 106.96,-46.75 110.05,-43.14"/>
<polygon fill="black" stroke="black" points="112.65,-45.48 116.57,-35.64 107.37,-40.89 112.65,-45.48"/>
<text text-anchor="middle" x="134.71" y="-58.2" font-family="Times,serif" font-size="14.00"> post1.html </text>
</g>
<!-- Transform#2&#45;&gt;Child -->
<g id="edge4" class="edge">
<title>Transform#2&#45;&gt;Child</title>
<path fill="none" stroke="black" d="M192.24,-88.85C185.67,-78.42 176.65,-64.99 167.45,-54 163.93,-49.79 159.97,-45.54 155.99,-41.52"/>
<polygon fill="black" stroke="black" points="158.63,-39.2 149.02,-34.73 153.74,-44.21 158.63,-39.2"/>
<text text-anchor="middle" x="213.71" y="-58.2" font-family="Times,serif" font-size="14.00"> post2.html </text>
</g>
</g>
</svg>
